<?xml version="1.0" encoding="UTF-8"?>
<svg width="1200pt" height="1200pt" version="1.1" viewBox="0 0 1200 1200" xmlns="http://www.w3.org/2000/svg">
 <path d="m1087.5 525h-43.875c-11.297-66.938-37.688-130.5-76.922-185.63l31.125-30.984c14.531-13.922 14.578-39.234 0-53.156l-53.062-53.062c-14.156-14.156-38.906-14.25-53.203 0l-30.938 31.078c-55.125-39.281-118.69-65.625-185.63-76.922v-43.875c0-20.672-16.828-37.5-37.5-37.5h-75c-20.672 0-37.5 16.828-37.5 37.5v43.875c-66.938 11.297-130.5 37.641-185.63 76.922 0 0-30.984-31.125-30.984-31.125-14.203-14.156-39-14.109-53.156 0l-53.062 53.062c-14.531 13.969-14.578 39.234 0 53.203l31.078 30.938c-39.281 55.125-65.625 118.69-76.922 185.63h-43.875c-20.672 0-37.5 16.828-37.5 37.5v75c0 20.672 16.828 37.5 37.5 37.5h43.875c11.297 66.938 37.688 130.5 76.922 185.63l-31.125 30.984c-14.531 13.922-14.578 39.234 0 53.156l53.062 53.062c13.969 14.578 39.188 14.578 53.203 0 0 0 30.984-31.125 30.984-31.125 9.1406 8.3906 23.766 10.219 31.406-1.1719 5.8594-8.5312 3.7031-20.203-4.875-26.062-12.281-8.0625-27.422-24.984-41.719-10.688 0 0-42.422 42.516-42.422 42.516l-53.062-53.156 42.562-42.375c6.7031-6.6562 7.3594-17.25 1.5938-24.75-44.016-57.188-72.328-125.39-81.75-197.26-1.2188-9.3281-9.1875-16.312-18.562-16.312h-60v-75h60c9.4219 0 17.344-6.9844 18.562-16.312 9.4688-71.859 37.734-140.06 81.75-197.26 5.7656-7.5 5.0625-18.094-1.5938-24.75l-42.516-42.469 53.156-53.062s42.375 42.562 42.375 42.562c6.6562 6.7031 17.25 7.3594 24.75 1.6406 57.188-44.062 125.44-72.328 197.26-81.75 9.3281-1.2188 16.312-9.1875 16.312-18.609v-60h75v60c0 9.4219 6.9844 17.391 16.312 18.609 71.812 9.4219 140.06 37.688 197.26 81.75 7.4531 5.7656 18.094 5.0625 24.75-1.6406 0 0 42.422-42.516 42.422-42.516s53.062 53.156 53.062 53.156l-42.562 42.375c-6.7031 6.6562-7.3594 17.25-1.5938 24.75 44.016 57.188 72.328 125.39 81.75 197.26 1.2188 9.3281 9.1875 16.312 18.562 16.312h60v75h-60c-9.4219 0-17.344 6.9844-18.562 16.312-9.4688 71.812-37.734 140.06-81.75 197.26-5.7656 7.5-5.0625 18.094 1.5938 24.75l42.516 42.422-53.156 53.062-42.375-42.562c-6.7031-6.7031-17.297-7.3594-24.797-1.5938-12.469 9.4688-33.797 19.828-21.75 38.344 7.5 11.203 22.359 9.7031 31.359 1.1719 0 0 30.984 31.125 30.984 31.125 13.922 14.531 39.234 14.578 53.156 0l53.062-53.062c14.578-13.969 14.578-39.188 0-53.203l-31.078-30.938c39.281-55.125 65.625-118.69 76.922-185.63h43.875c20.672 0 37.5-16.828 37.5-37.5v-75c0-20.672-16.828-37.5-37.5-37.5z"/>
 <path d="m600 262.5c-326.72 0.9375-461.16 422.29-195.94 612.28 20.016 14.016 41.672-16.078 21.75-30.562-235.78-168.94-116.16-543.42 174.19-544.22 64.875 0 126.61 20.391 178.6 58.922 19.828 14.438 41.953-15.141 22.359-30.141-58.453-43.359-127.97-66.328-200.9-66.328z"/>
 <path d="m774.19 844.22c-19.828 14.531 1.4531 44.578 21.75 30.562 151.5-103.69 187.74-330.47 75.234-475.69-14.719-19.547-44.625 2.4844-30.094 22.359 99.938 129.05 67.734 330.66-66.891 422.81z"/>
 <path d="m768.74 1125c10.359 0 18.75-8.3906 18.75-18.75v-56.344c0-77.297-47.062-143.86-114.05-172.45 105.8-71.297 55.969-239.48-73.453-239.95-72.375 0-131.26 58.875-131.26 131.26 0 45.188 22.969 85.125 57.797 108.7-67.875 28.125-115.08 98.578-114.05 172.45v56.344c0 10.359 8.3906 18.75 18.75 18.75s18.75-8.3906 18.75-18.75v-56.344c7.7344-198.84 292.03-198.84 300 0v56.344c0 10.359 8.3906 18.75 18.75 18.75zm-262.5-356.26c0-51.703 42.047-93.75 93.75-93.75 123.79 4.3594 124.22 182.48 0.46875 187.45-51.797 0.28125-94.266-41.859-94.219-93.703z"/>
</svg>
