<svg width="80" height="80" viewBox="0 0 80 80" fill="none" xmlns="http://www.w3.org/2000/svg">
<path d="M40 0C17.9439 0 0 17.9439 0 40C0 62.0561 17.9439 80 40 80C62.0562 80 80 62.0561 80 40C80 17.9439 62.0562 0 40 0ZM41.1038 64.5194L40.9284 63.8716L35.7383 44.5622L15.7809 39.1968L16.3936 38.9273L61.0572 19.2431L41.1038 64.5194ZM54.9723 23.9902L36.2236 42.7389L21.451 38.7651L54.9723 23.9902ZM41.5361 58.8495L37.5623 44.0769L56.311 25.3282L41.5361 58.8495Z" fill="#292929"/>
<path d="M61.0908 19.04L41.1367 64.3164L41.0225 64.5752L40.9492 64.3027L40.7734 63.6543L35.5986 44.4004L15.6963 39.0498L15.4229 38.9766L15.6826 38.8623L60.959 18.9082L61.1943 18.8047L61.0908 19.04ZM37.834 43.7773L41.7188 58.2197L56.165 25.4463L37.834 43.7773ZM21.6914 38.499L36.1348 42.3838L54.4668 24.0527L21.6914 38.499Z" fill="white" stroke="white" stroke-width="0.2"/>
</svg>
