<svg width="80" height="47" viewBox="0 0 80 47" fill="none" xmlns="http://www.w3.org/2000/svg"><path fill-rule="evenodd" clip-rule="evenodd" d="M61.316 26.485v12.137c0 2.652-1.755 4.89-4.324 5.512-12.122 2.932-23.347 2.563-33.981-.01a5.614 5.614 0 0 1-4.34-5.511l.003-12.128 19.233 7.169a6.007 6.007 0 0 0 4.186 0l19.223-7.169ZM1.326 14.184C.486 14.49 0 15.064 0 15.726c0 .663.486 1.228 1.326 1.544l1.906.71v7.87a2.547 2.547 0 0 0-1.26 2.206 2.54 2.54 0 0 0 1.642 2.383L1.31 36.08a1.586 1.586 0 0 0 0 1.156c.155.363.404.575.71.575h5.01c.3 0 .558-.212.704-.575a1.496 1.496 0 0 0 0-1.155L5.439 30.44a2.549 2.549 0 0 0 1.641-2.383c0-.938-.508-1.762-1.26-2.207v-6.916l32.993 12.292c.767.29 1.616.29 2.383 0l37.478-13.964c.84-.316 1.326-.881 1.326-1.544s-.486-1.228-1.326-1.544L41.186.214a3.439 3.439 0 0 0-2.383 0L1.326 14.183Z" fill="currentColor"/></svg>