<?xml version="1.0" encoding="UTF-8"?>
<svg width="1200pt" height="1200pt" version="1.1" viewBox="0 0 1200 1200" xmlns="http://www.w3.org/2000/svg">
 <path d="m637.5 318.75c51.695 0 93.75-42.055 93.75-93.75s-42.055-93.75-93.75-93.75-93.75 42.055-93.75 93.75 42.055 93.75 93.75 93.75zm0-150c31.012 0 56.25 25.238 56.25 56.25s-25.238 56.25-56.25 56.25-56.25-25.238-56.25-56.25 25.238-56.25 56.25-56.25z"/>
 <path d="m862.5 506.25h-56.25v-56.25c0-51.695-42.055-93.75-93.75-93.75h-150c-51.695 0-93.75 42.055-93.75 93.75v56.25h-75v-123.49l32.008-32.008c7.332-7.332 7.332-19.18 0-26.512-7.332-7.332-19.18-7.332-26.512 0l-37.5 37.5c-3.5273 3.5078-5.4961 8.2891-5.4961 13.258v131.25h-18.75c-10.352 0-18.75 8.3984-18.75 18.75s8.3984 18.75 18.75 18.75h18.75v56.25c0 2.0078 0.32031 4.0117 0.95703 5.9258l36.543 109.61v334.46c0 10.367 8.3984 18.75 18.75 18.75h375c10.367 0 18.75-8.3828 18.75-18.75v-334.46l36.523-109.61c0.64062-1.9141 0.97656-3.918 0.97656-5.9258v-56.25h18.75c10.367 0 18.75-8.3984 18.75-18.75s-8.3828-18.75-18.75-18.75zm-356.25-56.25c0-31.012 25.238-56.25 56.25-56.25h150c31.012 0 56.25 25.238 56.25 56.25v56.25h-262.5zm300 146.96-36.523 109.61c-0.64062 1.9141-0.97656 3.918-0.97656 5.9258v318.75h-337.5v-318.75c0-2.0078-0.32031-4.0117-0.95703-5.9258l-36.543-109.61v-53.211h412.5z"/>
</svg>
