<?xml version="1.0" encoding="UTF-8"?>
<svg width="1200pt" height="1200pt" version="1.1" viewBox="0 0 1200 1200" xmlns="http://www.w3.org/2000/svg">
 <path d="m615.09 194.73c-87.273-4-169.82 26.727-232.73 86.727-62.91 60-97.637 141.09-97.637 228.18 0 88.547 37.453 173.45 102.91 233.09 46.184 42 75.637 99.637 84.547 163.27h-17.453c-38.184 0-69.273 31.09-69.273 69.273 0 38.184 31.09 69.273 69.273 69.273h10.184c3.6367 71.453 62.727 128.36 135.09 128.36 72.363 0 131.27-56.91 135.09-128.36h10.184c38.184 0 69.273-31.09 69.273-69.273 0-38.184-31.09-69.273-69.273-69.273h-17.09c9.6367-62.363 40.91-121.64 89.816-168.55 63.637-60.91 99.09-146.55 97.273-234.91-3.6406-164.91-135.46-300.18-300.19-307.82zm-15.09 943.27c-53.09 0-96.91-41.453-100.36-93.637h200.91c-3.8203 52.363-47.457 93.637-100.55 93.637zm179.82-162.91c0 19.09-15.453 34.547-34.547 34.547h-290.54c-19.09 0-34.547-15.453-34.547-34.547 0-19.09 15.453-34.547 34.547-34.547h36.727 0.18359 216.73 0.18359 36.547c19.27 0.003906 34.723 15.641 34.723 34.547zm14.184-262.73c-55.816 53.453-91.453 121.64-101.09 193.45h-185.45c-9.2734-73.637-43.09-140.36-96.547-188.91-58.184-53.09-91.453-128.55-91.453-207.45 0-77.453 30.91-149.64 86.91-203.09s129.64-80.91 207.27-77.273c144.18 6.7266 263.82 129.64 266.91 274 1.6328 78.91-29.824 155.09-86.551 209.27z"/>
 <path d="m600 138c9.6367 0 17.273-7.8164 17.273-17.273v-76.18c0-9.6367-7.8164-17.273-17.273-17.273-9.4531 0-17.273 7.8164-17.273 17.273v76.184c0 9.6328 7.6367 17.27 17.273 17.27z"/>
 <path d="m325.45 251.82c4.3633 0 8.9102-1.6367 12.184-5.0898 6.7266-6.7266 6.7266-17.816 0-24.547l-53.816-53.816c-6.7266-6.7266-17.816-6.7266-24.547 0-6.7266 6.7266-6.7266 17.816 0 24.547l53.816 53.816c3.457 3.457 7.8203 5.0898 12.363 5.0898z"/>
 <path d="m211.64 491.64h-76c-9.6367 0-17.273 7.8164-17.273 17.273 0 9.6367 7.8164 17.273 17.273 17.273h76.184c9.6367 0 17.273-7.8164 17.273-17.273-0.003906-9.457-7.8203-17.273-17.457-17.273z"/>
 <path d="m1064.4 491.64h-76.184c-9.6367 0-17.273 7.8164-17.273 17.273 0 9.6367 7.8164 17.273 17.273 17.273h76.184c9.6367 0 17.273-7.8164 17.273-17.273 0.17969-9.457-7.6367-17.273-17.273-17.273z"/>
 <path d="m916.18 168.36-53.816 53.816c-6.7266 6.7266-6.7266 17.816 0 24.547 3.4531 3.4531 7.8164 5.0898 12.184 5.0898 4.3633 0 8.9102-1.6367 12.184-5.0898l53.816-53.816c6.7266-6.7266 6.7266-17.816 0-24.547-6.7344-6.7266-17.641-6.7266-24.367 0z"/>
 <path d="m660.91 487.45c18.547-16.727 30.363-40.547 30.363-67.453 0-50.363-40.91-91.273-91.273-91.273s-91.273 40.91-91.273 91.273c0 26.727 11.816 50.727 30.363 67.453-61.09 22.184-107.82 76.727-117.27 144-1.4531 10.547 1.8164 21.453 8.9102 29.453 7.0898 8.1836 17.453 12.91 28.363 12.91h282c10.91 0 21.09-4.7266 28.363-12.91 7.0898-8.1836 10.363-18.91 8.7266-29.453-9.4531-67.27-56.18-121.82-117.27-144zm-117.46-67.453c0-31.273 25.453-56.547 56.547-56.547 31.09 0 56.547 25.453 56.547 56.547 0 31.09-25.453 56.547-56.547 56.547-31.09 0-56.547-25.273-56.547-56.547zm199.64 218.18c-0.36328 0.36328-1.0898 1.0898-2.1836 1.0898h-282c-1.0898 0-1.8164-0.54688-2.1836-0.91016-0.54687-0.54688-0.72656-1.2734-0.72656-2 10-71.273 71.816-124.91 143.82-124.91s133.82 53.637 143.82 124.91c0.18359 0.54688 0.003907 1.0898-0.54297 1.8203z"/>
</svg>
