<svg width="40" height="40" viewBox="0 0 40 40" fill="none" xmlns="http://www.w3.org/2000/svg"><path d="M32.8 3.2H7.2c-2.208 0-4 1.792-4 4v25.6c0 2.208 1.792 4 4 4h25.6c2.208 0 4-1.792 4-4V7.2c0-2.208-1.792-4-4-4ZM13.6 16v15.2H8.8V16h4.8Zm-4.8-4.424c0-1.12.96-1.976 2.4-1.976s2.344.856 2.4 1.976c0 1.12-.896 2.024-2.4 2.024-1.44 0-2.4-.904-2.4-2.024ZM31.2 31.2h-4.8v-8c0-1.6-.8-3.2-2.8-3.232h-.064c-1.936 0-2.736 1.648-2.736 3.232v8H16V16h4.8v2.048S22.344 16 25.448 16c3.176 0 5.752 2.184 5.752 6.608V31.2Z" fill="currentColor"/></svg>