<svg width="701" height="105" viewBox="0 0 701 105" fill="none" xmlns="http://www.w3.org/2000/svg"><path d="M.25 9.426h23.41L39.76 48.667h.812l16.102-39.24h23.41v69.28H61.682V38.654h-.541L45.715 78.165H34.62L19.194 38.383h-.541v40.324H.25V9.427ZM80.425 78.707V9.427h18.808v27.062h24.898V9.426h18.808v69.28h-18.808V51.645H99.233v27.063H80.425ZM197.445 79.754c-6.985 0-12.955-1.492-17.909-4.477-4.89-3.048-8.605-7.303-11.145-12.765-2.54-5.461-3.81-11.875-3.81-19.242 0-7.113 1.492-13.4 4.477-18.862 2.985-5.461 7.081-9.685 12.288-12.67 5.208-3.048 11.05-4.572 17.528-4.572 4.89 0 10.765.762 17.623 2.286l3.144.572-.953 17.147h-6.382l-2.382-12.098c-.889-.762-2.445-1.397-4.667-1.905-2.16-.572-4.827-.858-8.002-.858-4.065 0-7.685 1.175-10.86 3.525-3.175 2.286-5.684 5.684-7.525 10.193-1.779 4.509-2.668 9.907-2.668 16.194 0 5.97.794 11.4 2.382 16.29 1.587 4.89 4.001 8.795 7.24 11.716 3.238 2.858 7.239 4.287 12.002 4.287 3.366 0 5.938-.286 7.716-.857 1.842-.572 3.398-1.397 4.668-2.477l4.001-9.335 6.001.762-2.286 13.527c-1.333.063-3.302.508-5.906 1.333a56.35 56.35 0 0 1-6.668 1.62c-2.096.444-4.731.666-7.907.666ZM227.959 52.129c0-5.716 1.175-10.67 3.525-14.86 2.349-4.192 5.429-7.367 9.24-9.527 3.874-2.222 8.002-3.334 12.384-3.334 8.002 0 14.003 2.54 18.004 7.621 4.064 5.08 6.097 11.749 6.097 20.005 0 5.779-1.175 10.764-3.525 14.956-2.35 4.191-5.462 7.366-9.336 9.526-3.81 2.159-7.906 3.238-12.288 3.238-8.002 0-14.035-2.54-18.1-7.62-4.001-5.08-6.001-11.75-6.001-20.005Zm24.672 22.196c4.382 0 7.748-1.81 10.098-5.43 2.35-3.62 3.525-8.986 3.525-16.1 0-7.049-1.08-12.637-3.239-16.765s-5.621-6.192-10.384-6.192c-4.382 0-7.779 1.81-10.192 5.43-2.35 3.62-3.525 8.986-3.525 16.099 0 7.05 1.111 12.638 3.334 16.766 2.223 4.128 5.684 6.192 10.383 6.192ZM291.631 33.172l-6.859-1.714v-5.144l13.622-1.715h.286l2.001 1.715v4l-.096 2.287c2.286-2.033 5.303-3.874 9.05-5.525 3.747-1.652 7.335-2.477 10.764-2.477 4.001 0 7.081.762 9.241 2.286 2.222 1.524 3.778 3.874 4.667 7.05.889 3.111 1.334 7.334 1.334 12.669v26.673l6.668.667v4.763h-22.576v-4.668l5.906-.762V46.509c0-3.747-.254-6.669-.762-8.764-.508-2.16-1.461-3.747-2.858-4.763-1.397-1.08-3.43-1.62-6.097-1.62-2.286 0-4.731.572-7.335 1.715-2.604 1.143-4.922 2.477-6.954 4v36.105l6.478.857v4.668h-22.482v-4.668l6.002-.858V33.172ZM358.033 71.086c.635.952 1.969 1.81 4.001 2.572a19.086 19.086 0 0 0 6.573 1.143c3.62 0 6.287-.699 8.002-2.096 1.714-1.397 2.572-3.334 2.572-5.81 0-1.715-.54-3.208-1.62-4.478-1.079-1.27-2.603-2.381-4.572-3.334-1.905-1.016-4.668-2.223-8.288-3.62-4.89-1.842-8.478-4.033-10.764-6.573-2.223-2.604-3.334-6.001-3.334-10.193 0-2.794.825-5.239 2.477-7.335 1.714-2.095 4.032-3.715 6.954-4.858 2.984-1.207 6.287-1.81 9.907-1.81 2.921 0 5.461.222 7.62.667 2.223.444 4.001.889 5.335 1.334a81.98 81.98 0 0 0 2.667.857v11.812h-5.811l-1.905-7.05c-.381-.761-1.397-1.396-3.048-1.904-1.651-.572-3.493-.858-5.525-.858-2.858 0-5.176.635-6.954 1.905-1.715 1.27-2.572 2.985-2.572 5.145 0 1.905.444 3.492 1.333 4.763a11.377 11.377 0 0 0 3.525 2.953c1.397.762 3.302 1.65 5.716 2.667l1.905.762c3.556 1.397 6.446 2.73 8.669 4a16.841 16.841 0 0 1 5.525 5.05c1.524 2.032 2.286 4.54 2.286 7.525 0 4.7-1.842 8.447-5.525 11.241-3.62 2.794-8.605 4.191-14.956 4.191-3.112 0-6.383-.412-9.812-1.238-3.366-.889-6.128-1.778-8.288-2.667V63.655h6.192l1.715 7.43ZM440.612 79.564c-1.778 0-3.111-.35-4-1.048-.826-.699-1.239-1.842-1.239-3.43v-3.238c-2.096 2.096-4.731 3.937-7.906 5.525-3.112 1.588-6.256 2.381-9.431 2.381-5.906 0-10.098-1.587-12.575-4.763-2.476-3.175-3.715-8.414-3.715-15.718V31.648l-5.334-1.524v-4.192l13.336-1.238h.095l1.81 1.143v32.674c0 3.684.254 6.573.762 8.67.572 2.031 1.525 3.556 2.858 4.572 1.397.952 3.398 1.428 6.002 1.428 2.54 0 4.921-.54 7.144-1.619 2.223-1.08 4.16-2.35 5.811-3.81V31.648l-6.859-1.524v-4.192l14.48-1.238h.095l2.191 1.143v48.011h5.716l-.096 4.287a85.825 85.825 0 0 1-4.667 1.048c-1.27.254-2.763.38-4.478.38ZM464.412 7.642l-7.716-1.047V2.498l15.337-1.81h.19l2.096 1.43v71.159l8.097.762v4.668h-25.72v-4.668l7.716-.858V7.642ZM505.47 79.66c-3.62 0-6.319-.826-8.097-2.478-1.779-1.65-2.668-4.477-2.668-8.478v-36.58h-6.858v-4.286c.317-.064 1.206-.286 2.667-.667 1.461-.381 2.445-.73 2.953-1.048 1.016-.572 1.81-1.715 2.382-3.43.508-1.206 1.111-3.143 1.809-5.81a714.236 714.236 0 0 0 1.239-4.763h5.62l.191 13.717h15.908v6.287h-15.908V61.37c0 3.62.095 6.16.285 7.621.255 1.46.731 2.413 1.429 2.858.762.444 2.033.667 3.811.667 1.714 0 3.588-.223 5.62-.667 2.096-.445 3.715-.921 4.858-1.43l1.429 4.288c-1.524 1.143-4.001 2.254-7.43 3.334-3.366 1.08-6.446 1.62-9.24 1.62ZM539.213 16.311c-2.032 0-3.556-.571-4.572-1.714-1.016-1.144-1.524-2.604-1.524-4.383 0-2.032.603-3.715 1.81-5.048 1.27-1.334 2.985-2 5.144-2 2.159 0 3.747.57 4.763 1.714 1.016 1.143 1.524 2.604 1.524 4.382 0 2.16-.635 3.874-1.905 5.144-1.207 1.27-2.922 1.905-5.144 1.905h-.096Zm-3.81 16.861-7.24-1.714v-5.05l14.766-1.81h.19l2.191 1.716v46.963l7.621.762v4.668h-25.244v-4.668l7.716-.858V33.172ZM565.411 33.172l-6.859-1.714v-5.144l13.622-1.715h.286l2 1.715v4l-.095 2.287c2.286-2.033 5.303-3.874 9.05-5.525 3.747-1.652 7.335-2.477 10.764-2.477 4.001 0 7.081.762 9.24 2.286 2.223 1.524 3.779 3.874 4.668 7.05.889 3.111 1.334 7.334 1.334 12.669v26.673l6.668.667v4.763h-22.576v-4.668l5.906-.762V46.509c0-3.747-.254-6.669-.763-8.764-.508-2.16-1.46-3.747-2.857-4.763-1.397-1.08-3.43-1.62-6.097-1.62-2.286 0-4.731.572-7.335 1.715-2.604 1.143-4.922 2.477-6.954 4v36.105l6.478.857v4.668h-22.482v-4.668l6.002-.858V33.172ZM645.721 104.427c-8.129 0-14.035-1.302-17.718-3.906-3.62-2.54-5.43-6.065-5.43-10.574 0-2.794.857-5.366 2.572-7.716 1.778-2.35 3.874-4.128 6.287-5.334-2.921-1.652-4.382-4.319-4.382-8.002 0-2.286.667-4.446 2-6.478a13.264 13.264 0 0 1 5.24-4.668c-3.176-1.397-5.621-3.397-7.335-6.001-1.651-2.604-2.477-5.684-2.477-9.24 0-3.684 1.016-6.89 3.048-9.622 2.096-2.73 4.827-4.826 8.193-6.287 3.429-1.46 7.049-2.19 10.859-2.19 6.414 0 11.432 1.333 15.051 4 .953-.952 2.414-1.873 4.382-2.762 1.969-.89 4.065-1.334 6.288-1.334h3.238v8.383h-10.478c1.524 2.35 2.286 5.08 2.286 8.192 0 3.747-.953 7.081-2.858 10.003-1.841 2.857-4.445 5.08-7.811 6.668-3.302 1.588-7.049 2.381-11.241 2.381-2.731 0-5.176-.285-7.335-.857a12.312 12.312 0 0 0-2.191 2.953c-.571 1.08-.857 2.127-.857 3.144 0 2.286.762 3.873 2.286 4.763 1.524.825 4.255 1.238 8.193 1.238h10.764c6.16 0 10.733 1.175 13.717 3.525 2.985 2.35 4.478 5.683 4.478 10.002 0 3.62-1.302 6.922-3.906 9.907-2.604 3.048-6.128 5.43-10.574 7.145-4.382 1.778-9.145 2.667-14.289 2.667Zm.667-49.726c7.24 0 10.859-4.287 10.859-12.86 0-4.255-.952-7.367-2.857-9.336-1.842-2.032-4.636-3.048-8.383-3.048-3.493 0-6.256.984-8.288 2.953-2.032 1.905-3.048 4.985-3.048 9.24 0 4.001.952 7.177 2.858 9.526 1.968 2.35 4.921 3.525 8.859 3.525Zm.19 44.2c3.112 0 6.034-.476 8.764-1.428 2.795-.89 5.049-2.255 6.764-4.096 1.714-1.779 2.572-3.874 2.572-6.287 0-2.858-.762-4.954-2.286-6.288-1.525-1.27-4.478-1.905-8.86-1.905h-11.24c-2.541 0-4.541-.159-6.002-.476-2.604 2.858-3.905 6.065-3.905 9.621s1.079 6.255 3.238 8.097c2.16 1.842 5.811 2.763 10.955 2.763Z" fill="currentColor"/><path d="M690.438 79.469c-2.159 0-4.064-.762-5.715-2.287-1.588-1.524-2.382-3.397-2.382-5.62 0-2.54.921-4.604 2.763-6.192 1.841-1.651 4.128-2.477 6.858-2.477 2.477 0 4.478.794 6.002 2.382 1.524 1.587 2.286 3.461 2.286 5.62 0 2.668-.889 4.763-2.667 6.287-1.778 1.525-4.16 2.287-7.145 2.287Z" fill="#FFD600"/></svg>