<svg width="40" height="40" viewBox="0 0 40 40" fill="none" xmlns="http://www.w3.org/2000/svg"><path d="M32.8 3.2H7.2c-2.208 0-4 1.792-4 4v25.6c0 2.208 1.792 4 4 4h25.6c2.208 0 4-1.792 4-4V7.2c0-2.208-1.792-4-4-4Z" fill="currentColor"/><path d="m13.198 14.171-1.515-1.22c.246-.1.509-.151.774-.151h15.086c.266 0 .529.051.775.15l-1.502 1.222-6.795 5.499-6.823-5.5Zm16.149-.287-1.132.912-7.371 5.938a1.359 1.359 0 0 1-1.673.013l-7.385-5.952-1.132-.912a2.058 2.058 0 0 0-.254.974v9.6a2.063 2.063 0 0 0 2.057 2.057h15.086a2.063 2.063 0 0 0 2.057-2.057v-9.6a2.037 2.037 0 0 0-.253-.973Z" fill="#fff"/></svg>